<?xml version="1.0" encoding="UTF-8"?>
<svg id="Layer_1" xmlns="http://www.w3.org/2000/svg" xmlns:xlink="http://www.w3.org/1999/xlink" viewBox="0 0 442.72 385.57">
  <defs>
    <style>
      .cls-1 {
        fill: url(#linear-gradient);
      }
    </style>
    <linearGradient id="linear-gradient" x1="330.71" y1="77.59" x2="213.71" y2="406.59" gradientUnits="userSpaceOnUse">
      <stop offset="0" stop-color="#ffeb00"/>
      <stop offset="1" stop-color="#ffa000"/>
    </linearGradient>
  </defs>
  <path class="cls-1" d="M273.01,194.26c-36.22,62.71-72.44,125.41-108.78,188.05-.86,1.49-3.16,3.05-4.8,3.06-52.5.15-104.99.12-157.49.1-.45,0-.9-.19-1.94-.43,5.26-9.13,10.4-18.02,15.51-26.92,10.27-17.91,20.61-35.78,30.7-53.78,2.11-3.77,4.65-5.84,8.91-6.95,18.79-4.89,37.48-10.2,57.71-15.77-11.16,19.49-21.7,37.91-32.63,57,2.17.19,3.56.43,4.95.43,15.5.03,31-.08,46.5.12,3.33.04,5.04-1.16,6.62-3.94,16.62-29.23,33.36-58.4,50.06-87.59.4-.69.66-1.46,1.41-3.17-41.87,9.44-82.92,18.7-125.01,28.19C117.12,181.47,169.04,91.09,221.37,0c5.74,9.94,11.12,19.23,16.46,28.54,20.95,36.54,41.88,73.09,62.81,109.64,2.53,4.41-.48,13.88-5.44,15.29-20.28,5.76-40.67,11.16-62.35,17.05,4.98-8.8,9.03-16.51,13.65-23.88,2.21-3.53,1.87-6.11-.13-9.5-8.28-14.01-16.29-28.19-24.88-43.14-21.09,36.52-41.76,72.33-62.43,108.14.17.44.34.89.51,1.33,40.99-9.21,81.98-18.42,123.89-27.83-3.73,6.65-7.02,12.66-10.45,18.6ZM386.96,287.54c-6.85-11.62-13.8-23.19-20.05-35.13-3.42-6.53-7.47-10.56-15.3-9.78-2.57.26-5.25-.55-8.36-.93,0-3.86-.39-7.54.07-11.11,1.66-12.85-2.03-23.98-9.12-34.68-6.58-9.92-12.03-20.59-18.14-31.22-42.39,73.76-84.48,146.98-126.9,220.78,16.79,0,32.61-.12,48.43.09,3.62.05,5.56-1.02,7.4-4.22,22.39-38.98,44.95-77.86,67.48-116.76.87-1.5,1.93-2.89,2.91-4.33.29.12.57.24.86.37-1.99,12.91-3.98,25.81-6.1,39.59,8.05-3.36,15.3-6.38,22.54-9.41.25.31.5.61.74.92-17.63,31.03-35.26,62.06-53.27,93.77,18.06,0,35.19.05,52.32-.11,1.25-.01,2.98-1.29,3.66-2.46,17.05-29.37,33.96-58.83,51.02-88.19,1.57-2.71,1.33-4.62-.18-7.19ZM400.43,311.12c-14.31,25.08-28.19,49.41-42.23,74.03h84.52c-14.17-24.8-28.05-49.1-42.29-74.03Z"/>
</svg>